<?xml version="1.0" encoding="UTF-8"?>
<svg xmlns="http://www.w3.org/2000/svg" xmlns:xlink="http://www.w3.org/1999/xlink" width="24pt" height="24pt" viewBox="0 0 24 24" version="1.1">
<g id="surface1">
<path style=" stroke:none;fill-rule:nonzero;" d="M 1.0625 1.980469 L 22.945312 1.980469 C 23.496094 1.980469 23.925781 1.550781 23.925781 1 C 23.925781 0.480469 23.496094 0 22.945312 0 L 1.0625 0 C 0.507812 0 0.0820312 0.480469 0.0820312 1 C 0.0820312 1.550781 0.507812 1.980469 1.0625 1.980469 Z M 1.0625 1.980469 "/>
<path style=" stroke:none;fill-rule:nonzero;" d="M 1.0625 6.402344 L 14.722656 6.402344 C 15.273438 6.402344 15.703125 5.972656 15.703125 5.421875 C 15.703125 4.867188 15.273438 4.421875 14.722656 4.421875 L 1.0625 4.421875 C 0.507812 4.421875 0.0820312 4.867188 0.0820312 5.421875 C 0.0820312 5.972656 0.507812 6.402344 1.0625 6.402344 Z M 1.0625 6.402344 "/>
<path style=" stroke:none;fill-rule:nonzero;" d="M 22.945312 8.808594 L 1.0625 8.808594 C 0.507812 8.808594 0.0820312 9.238281 0.0820312 9.789062 C 0.0820312 10.34375 0.507812 10.789062 1.0625 10.789062 L 22.945312 10.789062 C 23.496094 10.789062 23.925781 10.34375 23.925781 9.789062 C 23.925781 9.238281 23.496094 8.808594 22.945312 8.808594 Z M 22.945312 8.808594 "/>
<path style=" stroke:none;fill-rule:nonzero;" d="M 1.0625 15.195312 L 14.722656 15.195312 C 15.273438 15.195312 15.703125 14.765625 15.703125 14.214844 C 15.703125 13.660156 15.273438 13.234375 14.722656 13.234375 L 1.0625 13.234375 C 0.507812 13.234375 0.0820312 13.660156 0.0820312 14.214844 C 0.0820312 14.765625 0.507812 15.195312 1.0625 15.195312 Z M 1.0625 15.195312 "/>
<path style=" stroke:none;fill-rule:nonzero;" d="M 22.945312 17.621094 L 1.0625 17.621094 C 0.507812 17.621094 0.0820312 18.046875 0.0820312 18.601562 C 0.0820312 19.152344 0.507812 19.582031 1.0625 19.582031 L 22.945312 19.582031 C 23.496094 19.582031 23.925781 19.152344 23.925781 18.601562 C 23.925781 18.046875 23.496094 17.621094 22.945312 17.621094 Z M 22.945312 17.621094 "/>
<path style=" stroke:none;fill-rule:nonzero;" d="M 14.722656 22.023438 L 1.0625 22.023438 C 0.507812 22.023438 0.0820312 22.472656 0.0820312 23.023438 C 0.0820312 23.578125 0.507812 24.003906 1.0625 24.003906 L 14.722656 24.003906 C 15.273438 24.003906 15.703125 23.578125 15.703125 23.023438 C 15.703125 22.472656 15.273438 22.023438 14.722656 22.023438 Z M 14.722656 22.023438 "/>
</g>
</svg>
