<?xml version="1.0" encoding="UTF-8"?>
<svg xmlns="http://www.w3.org/2000/svg" xmlns:xlink="http://www.w3.org/1999/xlink" width="24pt" height="24pt" viewBox="0 0 24 24" version="1.1">
<g id="surface1">
<path style=" stroke:none;fill-rule:nonzero;" d="M 5.179688 4.421875 C 4.628906 4.421875 4.199219 4.867188 4.199219 5.421875 C 4.199219 5.972656 4.628906 6.402344 5.179688 6.402344 L 18.804688 6.402344 C 19.359375 6.402344 19.785156 5.972656 19.785156 5.421875 C 19.785156 4.867188 19.359375 4.421875 18.804688 4.421875 Z M 5.179688 4.421875 "/>
<path style=" stroke:none;fill-rule:nonzero;" d="M 18.804688 15.195312 C 19.359375 15.195312 19.785156 14.765625 19.785156 14.214844 C 19.785156 13.660156 19.359375 13.234375 18.804688 13.234375 L 5.179688 13.234375 C 4.628906 13.234375 4.199219 13.660156 4.199219 14.214844 C 4.199219 14.765625 4.628906 15.195312 5.179688 15.195312 Z M 18.804688 15.195312 "/>
<path style=" stroke:none;fill-rule:nonzero;" d="M 18.804688 22.023438 L 5.179688 22.023438 C 4.628906 22.023438 4.199219 22.472656 4.199219 23.023438 C 4.199219 23.578125 4.628906 24.003906 5.179688 24.003906 L 18.804688 24.003906 C 19.359375 24.003906 19.785156 23.578125 19.785156 23.023438 C 19.785156 22.472656 19.359375 22.023438 18.804688 22.023438 Z M 18.804688 22.023438 "/>
<path style=" stroke:none;fill-rule:nonzero;" d="M 1.0625 1.980469 L 22.945312 1.980469 C 23.496094 1.980469 23.925781 1.550781 23.925781 1 C 23.925781 0.480469 23.496094 0 22.945312 0 L 1.0625 0 C 0.507812 0 0.0820312 0.480469 0.0820312 1 C 0.0820312 1.550781 0.507812 1.980469 1.0625 1.980469 Z M 1.0625 1.980469 "/>
<path style=" stroke:none;fill-rule:nonzero;" d="M 22.945312 8.808594 L 1.0625 8.808594 C 0.507812 8.808594 0.0820312 9.238281 0.0820312 9.789062 C 0.0820312 10.34375 0.507812 10.789062 1.0625 10.789062 L 22.945312 10.789062 C 23.496094 10.789062 23.925781 10.34375 23.925781 9.789062 C 23.925781 9.238281 23.496094 8.808594 22.945312 8.808594 Z M 22.945312 8.808594 "/>
<path style=" stroke:none;fill-rule:nonzero;" d="M 22.945312 17.621094 L 1.0625 17.621094 C 0.507812 17.621094 0.0820312 18.046875 0.0820312 18.601562 C 0.0820312 19.152344 0.507812 19.582031 1.0625 19.582031 L 22.945312 19.582031 C 23.496094 19.582031 23.925781 19.152344 23.925781 18.601562 C 23.925781 18.046875 23.496094 17.621094 22.945312 17.621094 Z M 22.945312 17.621094 "/>
</g>
</svg>
