<?xml version="1.0" encoding="UTF-8"?>
<svg xmlns="http://www.w3.org/2000/svg" xmlns:xlink="http://www.w3.org/1999/xlink" width="24pt" height="24pt" viewBox="0 0 24 24" version="1.1">
<g id="surface1">
<path style=" stroke:none;fill-rule:nonzero;" d="M 22.917969 4.417969 L 9.265625 4.417969 C 8.714844 4.417969 8.285156 4.863281 8.285156 5.417969 C 8.285156 5.96875 8.714844 6.398438 9.265625 6.398438 L 22.917969 6.398438 C 23.46875 6.398438 23.914062 5.96875 23.914062 5.417969 C 23.914062 4.863281 23.46875 4.417969 22.917969 4.417969 Z M 22.917969 4.417969 "/>
<path style=" stroke:none;fill-rule:nonzero;" d="M 22.917969 13.222656 L 9.265625 13.222656 C 8.714844 13.222656 8.285156 13.652344 8.285156 14.203125 C 8.285156 14.753906 8.714844 15.183594 9.265625 15.183594 L 22.917969 15.183594 C 23.46875 15.183594 23.914062 14.753906 23.914062 14.203125 C 23.914062 13.652344 23.46875 13.222656 22.917969 13.222656 Z M 22.917969 13.222656 "/>
<path style=" stroke:none;fill-rule:nonzero;" d="M 22.917969 22.007812 L 9.265625 22.007812 C 8.714844 22.007812 8.285156 22.453125 8.285156 23.007812 C 8.285156 23.558594 8.714844 23.988281 9.265625 23.988281 L 22.917969 23.988281 C 23.46875 23.988281 23.914062 23.558594 23.914062 23.007812 C 23.914062 22.453125 23.46875 22.007812 22.917969 22.007812 Z M 22.917969 22.007812 "/>
<path style=" stroke:none;fill-rule:nonzero;" d="M 1.070312 1.976562 L 22.917969 1.976562 C 23.46875 1.976562 23.914062 1.550781 23.914062 0.996094 C 23.914062 0.480469 23.46875 0 22.917969 0 L 1.070312 0 C 0.515625 0 0.0703125 0.480469 0.0703125 0.996094 C 0.0703125 1.550781 0.515625 1.976562 1.070312 1.976562 Z M 1.070312 1.976562 "/>
<path style=" stroke:none;fill-rule:nonzero;" d="M 22.917969 8.804688 L 1.070312 8.804688 C 0.515625 8.804688 0.0703125 9.230469 0.0703125 9.785156 C 0.0703125 10.335938 0.515625 10.78125 1.070312 10.78125 L 22.917969 10.78125 C 23.46875 10.78125 23.914062 10.335938 23.914062 9.785156 C 23.914062 9.230469 23.46875 8.804688 22.917969 8.804688 Z M 22.917969 8.804688 "/>
<path style=" stroke:none;fill-rule:nonzero;" d="M 22.917969 17.605469 L 1.070312 17.605469 C 0.515625 17.605469 0.0703125 18.035156 0.0703125 18.585938 C 0.0703125 19.140625 0.515625 19.566406 1.070312 19.566406 L 22.917969 19.566406 C 23.46875 19.566406 23.914062 19.140625 23.914062 18.585938 C 23.914062 18.035156 23.46875 17.605469 22.917969 17.605469 Z M 22.917969 17.605469 "/>
</g>
</svg>
